<svg version="1.0" xmlns="http://www.w3.org/2000/svg" viewBox="0 0 400 400"
 preserveAspectRatio="xMidYMid meet">
<g transform="translate(0.000000,32.000000) scale(0.100000,-0.100000)"
fill="#000000" stroke="none">
<path d="M72 300 c-48 -29 -72 -75 -72 -138 0 -60 17 -101 56 -131 35 -28 74
-28 74 -1 0 15 -7 20 -24 20 -14 0 -27 4 -30 9 -3 4 6 6 20 3 16 -3 30 1 35 9
14 22 11 26 -20 32 -35 7 -59 54 -42 85 6 12 11 30 11 42 0 14 4 19 12 14 18
-11 110 -13 131 -2 13 7 17 4 17 -12 0 -12 5 -30 11 -42 17 -31 -7 -78 -43
-85 -20 -4 -27 -10 -24 -20 4 -8 6 -28 6 -44 0 -24 4 -29 24 -29 29 0 72 33
91 70 8 16 15 53 15 82 0 63 -24 109 -72 138 -45 27 -131 27 -176 0z"/>
</g>
</svg>
